<svg width="16" height="16" viewBox="0 0 16 16" fill="none" xmlns="http://www.w3.org/2000/svg">
<g id="list">
<path id="Path 2" d="M6.66669 4.66667H12" stroke="#F4F4F5" stroke-linecap="round"/>
<path id="Path 2_2" d="M6.66669 8.00001H12" stroke="#F4F4F5" stroke-linecap="round"/>
<path id="Path 2_3" d="M6.66669 11.3333H12" stroke="#F4F4F5" stroke-linecap="round"/>
<path id="Oval" fill-rule="evenodd" clip-rule="evenodd" d="M3.99998 5.33333C4.36817 5.33333 4.66665 5.03486 4.66665 4.66667C4.66665 4.29848 4.36817 4 3.99998 4C3.63179 4 3.33331 4.29848 3.33331 4.66667C3.33331 5.03486 3.63179 5.33333 3.99998 5.33333Z" fill="#F4F4F5"/>
<path id="Oval_2" fill-rule="evenodd" clip-rule="evenodd" d="M3.99998 8.66668C4.36817 8.66668 4.66665 8.3682 4.66665 8.00001C4.66665 7.63182 4.36817 7.33334 3.99998 7.33334C3.63179 7.33334 3.33331 7.63182 3.33331 8.00001C3.33331 8.3682 3.63179 8.66668 3.99998 8.66668Z" fill="#F4F4F5"/>
<path id="Oval_3" fill-rule="evenodd" clip-rule="evenodd" d="M3.99998 12C4.36817 12 4.66665 11.7015 4.66665 11.3333C4.66665 10.9651 4.36817 10.6667 3.99998 10.6667C3.63179 10.6667 3.33331 10.9651 3.33331 11.3333C3.33331 11.7015 3.63179 12 3.99998 12Z" fill="#F4F4F5"/>
</g>
</svg>
