<svg width="16" height="16" viewBox="0 0 16 16" fill="none" xmlns="http://www.w3.org/2000/svg">
<path d="M6.24502 3.26491L5.77068 3.1068L6.24502 3.26491ZM6.08574 3.74275L6.29105 4.19865L6.49081 4.10869L6.56008 3.90086L6.08574 3.74275ZM5.2713 4.21381L5.17106 4.70366L5.38605 4.74765L5.56398 4.6192L5.2713 4.21381ZM4.77676 4.11261L4.877 3.62276H4.877L4.77676 4.11261ZM2.80383 5L3.23684 5.25L2.80383 5ZM3.02179 7.15231L2.64769 7.48404H2.64769L3.02179 7.15231ZM3.3567 7.52999L3.85422 7.57974L3.876 7.36199L3.7308 7.19825L3.3567 7.52999ZM3.3567 8.47002L3.7308 8.80175L3.876 8.63801L3.85422 8.42026L3.3567 8.47002ZM3.02179 8.8477L2.64769 8.51596H2.64769L3.02179 8.8477ZM2.80383 11L2.37082 11.25H2.37082L2.80383 11ZM4.77676 11.8874L4.67652 11.3975H4.67652L4.77676 11.8874ZM5.27131 11.7862L5.56398 11.3808L5.38606 11.2524L5.17107 11.2963L5.27131 11.7862ZM6.08574 12.2573L6.56008 12.0991L6.49081 11.8913L6.29105 11.8013L6.08574 12.2573ZM6.24502 12.7351L5.77068 12.8932L6.24502 12.7351ZM9.75496 12.7351L10.2293 12.8932L9.75496 12.7351ZM9.91424 12.2573L9.70893 11.8013L9.50918 11.8913L9.4399 12.0991L9.91424 12.2573ZM10.7287 11.7862L10.8289 11.2963L10.6139 11.2524L10.436 11.3808L10.7287 11.7862ZM11.2232 11.8874L11.123 12.3772L11.2232 11.8874ZM12.9782 8.8477L12.6041 9.17943L12.6041 9.17943L12.9782 8.8477ZM12.6433 8.47003L12.1458 8.42027L12.124 8.63803L12.2692 8.80177L12.6433 8.47003ZM12.6433 7.52997L12.2692 7.19824L12.124 7.36198L12.1458 7.57973L12.6433 7.52997ZM12.9782 7.15231L12.6041 6.82057V6.82057L12.9782 7.15231ZM13.1961 5L12.7631 5.25L13.1961 5ZM11.2232 4.11261L11.3234 4.60246L11.2232 4.11261ZM10.7287 4.21381L10.436 4.6192L10.6139 4.74765L10.8289 4.70366L10.7287 4.21381ZM9.91424 3.74275L9.4399 3.90086L9.50918 4.10869L9.70893 4.19865L9.91424 3.74275ZM9.75496 3.26491L10.2293 3.1068V3.1068L9.75496 3.26491ZM6.71936 3.42302C6.9031 2.8718 7.41895 2.5 7.99999 2.5V1.5C6.98852 1.5 6.09053 2.14723 5.77068 3.1068L6.71936 3.42302ZM6.56008 3.90086L6.71936 3.42302L5.77068 3.1068L5.6114 3.58464L6.56008 3.90086ZM5.56398 4.6192C5.79045 4.45569 6.03388 4.31447 6.29105 4.19865L5.88043 3.28685C5.56115 3.43063 5.25925 3.60582 4.97862 3.80842L5.56398 4.6192ZM4.67652 4.60246L5.17106 4.70366L5.37154 3.72396L4.877 3.62276L4.67652 4.60246ZM3.23684 5.25C3.52736 4.74681 4.10728 4.48597 4.67652 4.60246L4.877 3.62276C3.88607 3.41998 2.87655 3.87405 2.37082 4.75L3.23684 5.25ZM3.39589 6.82057C3.01039 6.38584 2.94633 5.7532 3.23684 5.25L2.37082 4.75C1.86508 5.62596 1.97661 6.72726 2.64769 7.48404L3.39589 6.82057ZM3.7308 7.19825L3.39589 6.82057L2.64769 7.48404L2.9826 7.86172L3.7308 7.19825ZM3.83332 8C3.83332 7.858 3.84041 7.71781 3.85422 7.57974L2.85918 7.48023C2.84207 7.65131 2.83332 7.82471 2.83332 8H3.83332ZM3.85422 8.42026C3.84041 8.28219 3.83332 8.142 3.83332 8H2.83332C2.83332 8.17529 2.84207 8.34869 2.85918 8.51978L3.85422 8.42026ZM3.39589 9.17943L3.7308 8.80175L2.9826 8.13828L2.64769 8.51596L3.39589 9.17943ZM3.23684 10.75C2.94632 10.2468 3.01039 9.61417 3.39589 9.17943L2.64769 8.51596C1.97661 9.27275 1.86508 10.374 2.37082 11.25L3.23684 10.75ZM4.67652 11.3975C4.10728 11.514 3.52736 11.2532 3.23684 10.75L2.37082 11.25C2.87655 12.126 3.88607 12.58 4.877 12.3772L4.67652 11.3975ZM5.17107 11.2963L4.67652 11.3975L4.877 12.3772L5.37155 12.276L5.17107 11.2963ZM6.29105 11.8013C6.03388 11.6855 5.79045 11.5443 5.56398 11.3808L4.97863 12.1916C5.25925 12.3942 5.56116 12.5694 5.88043 12.7132L6.29105 11.8013ZM6.71936 12.577L6.56008 12.0991L5.6114 12.4154L5.77068 12.8932L6.71936 12.577ZM7.99999 13.5C7.41895 13.5 6.9031 13.1282 6.71936 12.577L5.77068 12.8932C6.09053 13.8528 6.98852 14.5 7.99999 14.5V13.5ZM9.28062 12.577C9.09688 13.1282 8.58103 13.5 7.99999 13.5V14.5C9.01146 14.5 9.90945 13.8528 10.2293 12.8932L9.28062 12.577ZM9.4399 12.0991L9.28062 12.577L10.2293 12.8932L10.3886 12.4154L9.4399 12.0991ZM10.436 11.3808C10.2095 11.5443 9.9661 11.6855 9.70893 11.8013L10.1196 12.7132C10.4388 12.5694 10.7407 12.3942 11.0213 12.1916L10.436 11.3808ZM11.3234 11.3975L10.8289 11.2963L10.6284 12.276L11.123 12.3772L11.3234 11.3975ZM12.7631 10.75C12.4726 11.2532 11.8927 11.514 11.3234 11.3975L11.123 12.3772C12.1139 12.58 13.1234 12.126 13.6291 11.25L12.7631 10.75ZM12.6041 9.17943C12.9896 9.61417 13.0536 10.2468 12.7631 10.75L13.6291 11.25C14.1349 10.374 14.0234 9.27275 13.3523 8.51596L12.6041 9.17943ZM12.2692 8.80177L12.6041 9.17943L13.3523 8.51596L13.0174 8.1383L12.2692 8.80177ZM12.1667 8C12.1667 8.14201 12.1596 8.2822 12.1458 8.42027L13.1408 8.51979C13.1579 8.34871 13.1667 8.1753 13.1667 8H12.1667ZM12.1458 7.57973C12.1596 7.7178 12.1667 7.85799 12.1667 8H13.1667C13.1667 7.82471 13.1579 7.6513 13.1408 7.48021L12.1458 7.57973ZM12.6041 6.82057L12.2692 7.19824L13.0174 7.86171L13.3523 7.48404L12.6041 6.82057ZM12.7631 5.25C13.0536 5.7532 12.9896 6.38584 12.6041 6.82057L13.3523 7.48404C14.0234 6.72726 14.1349 5.62596 13.6291 4.75L12.7631 5.25ZM11.3234 4.60246C11.8927 4.48597 12.4726 4.74681 12.7631 5.25L13.6291 4.75C13.1234 3.87404 12.1139 3.41998 11.123 3.62276L11.3234 4.60246ZM10.8289 4.70366L11.3234 4.60246L11.123 3.62276L10.6284 3.72396L10.8289 4.70366ZM9.70893 4.19865C9.9661 4.31447 10.2095 4.45569 10.436 4.6192L11.0214 3.80842C10.7407 3.60582 10.4388 3.43063 10.1196 3.28685L9.70893 4.19865ZM9.28062 3.42302L9.4399 3.90086L10.3886 3.58464L10.2293 3.1068L9.28062 3.42302ZM7.99999 2.5C8.58103 2.5 9.09688 2.8718 9.28062 3.42302L10.2293 3.1068C9.90945 2.14723 9.01146 1.5 7.99999 1.5V2.5Z" fill="#F4F4F5"/>
<path fill-rule="evenodd" clip-rule="evenodd" d="M7.99998 8.66668C8.36817 8.66668 8.66665 8.3682 8.66665 8.00001C8.66665 7.63182 8.36817 7.33334 7.99998 7.33334C7.63179 7.33334 7.33331 7.63182 7.33331 8.00001C7.33331 8.3682 7.63179 8.66668 7.99998 8.66668Z" stroke="#F4F4F5"/>
</svg>
